<svg width="20" height="20" viewBox="0 0 20 20" fill="none" xmlns="http://www.w3.org/2000/svg">
<path fill-rule="evenodd" clip-rule="evenodd" d="M2.29289 2.29289C2.48043 2.10536 2.73478 2 3 2H17C17.2652 2 17.5196 2.10536 17.7071 2.29289C17.8946 2.48043 18 2.73478 18 3V13C18 13.2652 17.8946 13.5196 17.7071 13.7071C17.5196 13.8946 17.2652 14 17 14H5C4.73478 14 4.48043 14.1054 4.29289 14.2929L2 16.5858V3C2 2.73478 2.10536 2.48043 2.29289 2.29289ZM3 0C2.20435 0 1.44129 0.31607 0.87868 0.87868C0.31607 1.44129 0 2.20435 0 3V19C0 19.4045 0.243642 19.7691 0.617317 19.9239C0.990991 20.0787 1.42111 19.9931 1.70711 19.7071L5.41421 16H17C17.7957 16 18.5587 15.6839 19.1213 15.1213C19.6839 14.5587 20 13.7957 20 13V3C20 2.20435 19.6839 1.44129 19.1213 0.87868C18.5587 0.31607 17.7957 0 17 0H3Z" fill="#202020"/>
</svg>
