<svg width="45" height="19" viewBox="0 0 45 19" fill="none" xmlns="http://www.w3.org/2000/svg">
<path d="M7.65687 7.77213H6.50297C6.01344 7.77213 5.66059 7.64815 5.44444 7.40021C5.22828 7.14591 5.1202 6.81213 5.1202 6.39889C5.1202 5.4834 5.80364 5.02566 7.17051 5.02566C8.45474 5.02566 9.42109 5.21639 10.0696 5.59784L9.51646 6.01744C9.07143 5.814 8.28945 5.71228 7.17051 5.71228C6.62376 5.71228 6.25503 5.77267 6.0643 5.89347C5.87993 6.01426 5.78774 6.18274 5.78774 6.39889C5.78774 6.61505 5.8386 6.78353 5.94033 6.90432C6.04205 7.02511 6.22959 7.08551 6.50297 7.08551H7.68548C8.54375 7.08551 9.31619 7.23173 10.0028 7.52418C10.6958 7.81663 11.2648 8.21716 11.7098 8.72576C12.1548 9.22801 12.495 9.80973 12.7302 10.4709C12.9654 11.1257 13.0831 11.8283 13.0831 12.5784C13.0831 13.1888 12.9972 13.7673 12.8256 14.3141C12.6539 14.8608 12.3933 15.3631 12.0436 15.8208C11.7003 16.2785 11.2839 16.6759 10.7943 17.0128C10.3112 17.3434 9.73261 17.6009 9.05871 17.7853C8.39117 17.976 7.6664 18.0714 6.88442 18.0714C5.65741 18.0714 4.50669 17.8838 3.43227 17.5087C2.3642 17.14 1.47414 16.6219 0.762089 15.9543L1.3152 15.5443C1.96367 16.1291 2.77426 16.5837 3.74697 16.9079C4.72603 17.2258 5.77185 17.3848 6.88442 17.3848C7.75541 17.3848 8.54057 17.2608 9.2399 17.0128C9.94559 16.7585 10.5241 16.4121 10.9755 15.9734C11.4333 15.5347 11.7829 15.0261 12.0245 14.4476C12.2725 13.869 12.3964 13.246 12.3964 12.5784C12.3964 11.6947 12.2184 10.8969 11.8624 10.1848C11.5064 9.46642 10.9628 8.8847 10.2317 8.43967C9.50692 7.99464 8.64865 7.77213 7.65687 7.77213ZM6.50297 8.45874H7.59011C8.8807 8.45874 9.88837 8.85291 10.6131 9.64125C11.3443 10.4296 11.7098 11.4087 11.7098 12.5784C11.7098 13.7673 11.287 14.7527 10.4415 15.5347C9.59593 16.3103 8.41024 16.6981 6.88442 16.6981C5.86721 16.6981 4.91676 16.5583 4.03306 16.2785C3.14935 15.9988 2.41506 15.6046 1.83016 15.096L2.3642 14.6669C2.88552 15.0929 3.54034 15.4235 4.32868 15.6587C5.12338 15.8939 5.97529 16.0115 6.88442 16.0115C8.22587 16.0115 9.24944 15.6905 9.95513 15.0484C10.6672 14.4062 11.0232 13.5829 11.0232 12.5784C11.0232 11.5867 10.7244 10.7665 10.1268 10.1181C9.53553 9.4696 8.68679 9.14536 7.58058 9.14536H6.50297C5.57477 9.14536 4.87861 8.89106 4.41451 8.38245C3.95041 7.87385 3.71836 7.21266 3.71836 6.39889C3.71836 5.58512 4.00445 4.92394 4.57663 4.41533C5.15517 3.90673 6.0198 3.65242 7.17051 3.65242C7.97793 3.65242 8.72812 3.74779 9.42109 3.93851C10.1141 4.12288 10.6862 4.3899 11.1376 4.73957L10.5941 5.15917C9.79937 4.61242 8.65819 4.33904 7.17051 4.33904C6.21052 4.33904 5.50801 4.52977 5.06298 4.91122C4.62431 5.28632 4.40497 5.78221 4.40497 6.39889C4.40497 7.02193 4.56709 7.521 4.89133 7.8961C5.22192 8.2712 5.75914 8.45874 6.50297 8.45874ZM6.50297 9.83198H7.55197C8.48017 9.83198 9.17633 10.0895 9.64043 10.6044C10.1045 11.1194 10.3366 11.7774 10.3366 12.5784C10.3366 13.3922 10.0473 14.0534 9.46877 14.562C8.89659 15.0706 8.03514 15.3249 6.88442 15.3249C6.07701 15.3249 5.32364 15.2327 4.62431 15.0484C3.93134 14.8576 3.35915 14.5874 2.90777 14.2378L3.45134 13.8182C4.24603 14.3649 5.3904 14.6383 6.88442 14.6383C7.84442 14.6383 8.54375 14.4507 8.98242 14.0757C9.42745 13.6942 9.64997 13.1951 9.64997 12.5784C9.64997 11.9618 9.48467 11.4659 9.15408 11.0908C8.82348 10.7093 8.28627 10.5186 7.54243 10.5186H6.50297C5.19967 10.5186 4.17928 10.1308 3.4418 9.35516C2.71068 8.57318 2.34512 7.58776 2.34512 6.39889C2.34512 5.21003 2.7679 4.22778 3.61346 3.45216C4.45901 2.67018 5.6447 2.27919 7.17051 2.27919C8.18773 2.27919 9.135 2.41906 10.0123 2.69879C10.896 2.97852 11.6303 3.37269 12.2152 3.8813L11.6812 4.31043C11.1599 3.88448 10.5051 3.55388 9.71672 3.31865C8.92838 3.08342 8.07965 2.96581 7.17051 2.96581C5.82907 2.96581 4.80232 3.28686 4.09027 3.92898C3.38458 4.57109 3.03174 5.3944 3.03174 6.39889C3.03174 7.39703 3.33055 8.22033 3.92816 8.86881C4.52577 9.51092 5.38404 9.83198 6.50297 9.83198ZM6.50297 11.2052H7.55197C8.0415 11.2052 8.39435 11.3324 8.6105 11.5867C8.82666 11.841 8.93474 12.1716 8.93474 12.5784C8.93474 13.4939 8.2513 13.9517 6.88442 13.9517C5.59384 13.9517 4.62431 13.761 3.97584 13.3795L4.52895 12.9599C4.97398 13.1633 5.75914 13.2651 6.88442 13.2651C7.43117 13.2651 7.79673 13.2047 7.9811 13.0839C8.17183 12.9631 8.26719 12.7946 8.26719 12.5784C8.26719 12.3686 8.21316 12.2033 8.10508 12.0826C8.00336 11.9554 7.81263 11.8918 7.5329 11.8918H6.50297C5.62563 11.8918 4.83093 11.7488 4.11888 11.4627C3.41319 11.1766 2.83148 10.7824 2.37373 10.2802C1.92234 9.77794 1.57586 9.19622 1.33427 8.53503C1.09268 7.87385 0.971888 7.1618 0.971888 6.39889C0.971888 5.78857 1.05772 5.21003 1.22937 4.66328C1.40102 4.11653 1.65851 3.61428 2.00181 3.15653C2.35148 2.69879 2.7679 2.30462 3.25108 1.97403C3.74061 1.63708 4.31915 1.37642 4.98669 1.19205C5.66059 1.00132 6.38853 0.905956 7.17051 0.905956C8.39752 0.905956 9.54507 1.0935 10.6131 1.4686C11.6812 1.83734 12.5713 2.35548 13.2833 3.02303L12.7302 3.43309C12.0817 2.84819 11.2711 2.3968 10.2984 2.07893C9.32573 1.75469 8.28309 1.59257 7.17051 1.59257C6.29953 1.59257 5.51119 1.71972 4.8055 1.97403C4.10617 2.22197 3.52763 2.56528 3.06988 3.00395C2.6185 3.44262 2.26883 3.95123 2.02089 4.52977C1.7793 5.10831 1.65851 5.73135 1.65851 6.39889C1.65851 7.29531 1.8397 8.10272 2.20208 8.82112C2.56446 9.53953 3.11757 10.1181 3.8614 10.5567C4.60524 10.9891 5.48576 11.2052 6.50297 11.2052ZM27.2255 9.13582H27.9121V17.3848H27.2255V9.13582ZM29.9719 9.13582H30.6585V17.3848H29.9719V9.13582ZM28.5987 9.13582H29.2853V17.3848H28.5987V9.13582ZM26.5388 9.13582V17.3848C25.3309 17.8425 24.0785 18.0714 22.7815 18.0714C21.6562 18.0714 20.5786 17.8648 19.5487 17.4515C18.5188 17.0383 17.6128 16.4661 16.8308 15.735C16.0489 14.9975 15.4226 14.0884 14.9522 13.0076C14.4881 11.9204 14.256 10.7475 14.256 9.48867C14.256 8.32523 14.4817 7.21584 14.9331 6.16048C15.3908 5.09877 16.0012 4.18646 16.7641 3.42355C17.5333 2.65429 18.4457 2.04396 19.501 1.59257C20.5627 1.13483 21.6753 0.905956 22.8387 0.905956C24.2883 0.905956 25.6361 1.24291 26.8821 1.91681C28.1282 2.59071 29.1454 3.5062 29.9338 4.66328L29.3616 5.03519C28.6368 3.97348 27.6991 3.13428 26.5484 2.5176C25.404 1.90091 24.1675 1.59257 22.8387 1.59257C21.7707 1.59257 20.7471 1.80237 19.768 2.22197C18.7953 2.63521 17.9561 3.19468 17.2504 3.90037C16.5447 4.60606 15.9821 5.44844 15.5625 6.4275C15.1493 7.40021 14.9426 8.4206 14.9426 9.48867C14.9426 10.6394 15.1556 11.7138 15.5816 12.712C16.0139 13.7101 16.5861 14.5461 17.2981 15.22C18.0165 15.8939 18.8494 16.4248 19.7966 16.8126C20.7439 17.194 21.7293 17.3848 22.7529 17.3848C23.8273 17.3848 24.8604 17.2163 25.8522 16.8793V16.2213C24.9049 16.5392 23.91 16.6981 22.8673 16.6981C22.1108 16.6981 21.3733 16.5932 20.6549 16.3834C19.9429 16.1673 19.2817 15.8526 18.6714 15.4394C18.0674 15.0198 17.5365 14.5239 17.0788 13.9517C16.6274 13.3731 16.2714 12.7024 16.0107 11.9395C15.7564 11.1702 15.6293 10.3533 15.6293 9.48867C15.6293 8.18537 15.9503 6.98061 16.5924 5.87439C17.2409 4.76818 18.1182 3.89401 19.2245 3.2519C20.3307 2.60343 21.5354 2.27919 22.8387 2.27919C24.0594 2.27919 25.1942 2.56528 26.2432 3.13746C27.2922 3.70328 28.1473 4.47255 28.8085 5.44526L28.2363 5.81718C27.6387 4.93983 26.8631 4.24686 25.9094 3.73825C24.9622 3.22329 23.9386 2.96581 22.8387 2.96581C21.955 2.96581 21.1095 3.13746 20.3021 3.48077C19.4947 3.82408 18.7985 4.28818 18.2136 4.87308C17.6351 5.45162 17.1741 6.14459 16.8308 6.952C16.4875 7.75941 16.3159 8.60497 16.3159 9.48867C16.3159 10.2834 16.4303 11.0304 16.6592 11.7297C16.8944 12.4227 17.2155 13.0298 17.6224 13.5512C18.0356 14.0661 18.5156 14.5111 19.0623 14.8862C19.6091 15.255 20.2035 15.5347 20.8456 15.7254C21.4941 15.9162 22.1585 16.0115 22.8387 16.0115C23.8941 16.0115 24.8986 15.8335 25.8522 15.4775V14.7909C24.9113 15.1533 23.9291 15.3345 22.9055 15.3345C22.1299 15.3345 21.3892 15.2041 20.6835 14.9435C19.9778 14.6764 19.3484 14.3013 18.7953 13.8182C18.2486 13.335 17.8131 12.7183 17.4888 11.9681C17.1646 11.2179 17.0025 10.3914 17.0025 9.48867C17.0025 8.43331 17.2631 7.45743 17.7845 6.56101C18.3058 5.66459 19.0147 4.95573 19.9111 4.4344C20.8075 3.91308 21.7834 3.65242 22.8387 3.65242C23.8242 3.65242 24.7396 3.8813 25.5852 4.33904C26.4371 4.79679 27.1301 5.41983 27.6641 6.20817L27.0919 6.58008C26.6215 5.89347 26.0112 5.34989 25.261 4.94937C24.5171 4.54248 23.7097 4.33904 22.8387 4.33904C21.9042 4.33904 21.0427 4.57109 20.2544 5.03519C19.466 5.49294 18.8398 6.11598 18.3757 6.90432C17.918 7.69266 17.6891 8.55411 17.6891 9.48867C17.6891 10.1371 17.7813 10.7411 17.9657 11.3006C18.15 11.86 18.4043 12.3432 18.7286 12.7501C19.0528 13.157 19.4311 13.5035 19.8634 13.7896C20.3021 14.0757 20.7725 14.2918 21.2748 14.438C21.777 14.5779 22.2983 14.6478 22.8387 14.6478C23.9132 14.6478 24.9177 14.4349 25.8522 14.0089V13.3509C24.9494 13.7514 23.9736 13.9517 22.9246 13.9517C22.3206 13.9517 21.7516 13.8595 21.2176 13.6751C20.6835 13.4908 20.2003 13.2206 19.768 12.8645C19.3421 12.5085 19.0019 12.0412 18.7476 11.4627C18.4997 10.8778 18.3757 10.2198 18.3757 9.48867C18.3757 8.8847 18.4933 8.30934 18.7286 7.76259C18.9638 7.20948 19.2817 6.73266 19.6822 6.33214C20.0827 5.93161 20.5564 5.61373 21.1031 5.3785C21.6562 5.14327 22.2348 5.02566 22.8387 5.02566C23.5953 5.02566 24.2978 5.20367 24.9463 5.55969C25.5947 5.90936 26.1224 6.38618 26.5293 6.99015L25.9667 7.36206C25.6233 6.85346 25.1751 6.45293 24.622 6.16048C24.0753 5.86168 23.4808 5.71228 22.8387 5.71228C21.7961 5.71228 20.906 6.08101 20.1686 6.81849C19.4311 7.55597 19.0623 8.44603 19.0623 9.48867C19.0623 10.1308 19.1672 10.6998 19.377 11.1957C19.5868 11.6852 19.8729 12.0794 20.2353 12.3782C20.6041 12.6706 21.0109 12.8931 21.456 13.0457C21.9074 13.192 22.3905 13.2651 22.9055 13.2651C23.9608 13.2651 24.9431 13.0457 25.8522 12.6071V9.13582H26.5388ZM38.7263 7.77213H37.5724C37.0829 7.77213 36.73 7.64815 36.5139 7.40021C36.2977 7.14591 36.1896 6.81213 36.1896 6.39889C36.1896 5.4834 36.8731 5.02566 38.2399 5.02566C39.5242 5.02566 40.4905 5.21639 41.139 5.59784L40.5859 6.01744C40.1409 5.814 39.3589 5.71228 38.2399 5.71228C37.6932 5.71228 37.3244 5.77267 37.1337 5.89347C36.9494 6.01426 36.8572 6.18274 36.8572 6.39889C36.8572 6.61505 36.908 6.78353 37.0097 6.90432C37.1115 7.02511 37.299 7.08551 37.5724 7.08551H38.7549C39.6132 7.08551 40.3856 7.23173 41.0722 7.52418C41.7652 7.81663 42.3342 8.21716 42.7792 8.72576C43.2243 9.22801 43.5644 9.80973 43.7996 10.4709C44.0349 11.1257 44.1525 11.8283 44.1525 12.5784C44.1525 13.1888 44.0666 13.7673 43.895 14.3141C43.7233 14.8608 43.4627 15.3631 43.113 15.8208C42.7697 16.2785 42.3533 16.6759 41.8638 17.0128C41.3806 17.3434 40.802 17.6009 40.1281 17.7853C39.4606 17.976 38.7358 18.0714 37.9538 18.0714C36.7268 18.0714 35.5761 17.8838 34.5017 17.5087C33.4336 17.14 32.5436 16.6219 31.8315 15.9543L32.3846 15.5443C33.0331 16.1291 33.8437 16.5837 34.8164 16.9079C35.7955 17.2258 36.8413 17.3848 37.9538 17.3848C38.8248 17.3848 39.61 17.2608 40.3093 17.0128C41.015 16.7585 41.5936 16.4121 42.0449 15.9734C42.5027 15.5347 42.8524 15.0261 43.0939 14.4476C43.3419 13.869 43.4659 13.246 43.4659 12.5784C43.4659 11.6947 43.2878 10.8969 42.9318 10.1848C42.5758 9.46642 42.0322 8.8847 41.3011 8.43967C40.5763 7.99464 39.7181 7.77213 38.7263 7.77213ZM37.5724 8.45874H38.6595C39.9501 8.45874 40.9578 8.85291 41.6826 9.64125C42.4137 10.4296 42.7792 11.4087 42.7792 12.5784C42.7792 13.7673 42.3565 14.7527 41.5109 15.5347C40.6653 16.3103 39.4797 16.6981 37.9538 16.6981C36.9366 16.6981 35.9862 16.5583 35.1025 16.2785C34.2188 15.9988 33.4845 15.6046 32.8996 15.096L33.4336 14.6669C33.9549 15.0929 34.6098 15.4235 35.3981 15.6587C36.1928 15.8939 37.0447 16.0115 37.9538 16.0115C39.2953 16.0115 40.3189 15.6905 41.0246 15.0484C41.7366 14.4062 42.0926 13.5829 42.0926 12.5784C42.0926 11.5867 41.7938 10.7665 41.1962 10.1181C40.605 9.4696 39.7562 9.14536 38.65 9.14536H37.5724C36.6442 9.14536 35.948 8.89106 35.4839 8.38245C35.0198 7.87385 34.7878 7.21266 34.7878 6.39889C34.7878 5.58512 35.0739 4.92394 35.6461 4.41533C36.2246 3.90673 37.0892 3.65242 38.2399 3.65242C39.0473 3.65242 39.7975 3.74779 40.4905 3.93851C41.1835 4.12288 41.7557 4.3899 42.2071 4.73957L41.6635 5.15917C40.8688 4.61242 39.7276 4.33904 38.2399 4.33904C37.2799 4.33904 36.5774 4.52977 36.1324 4.91122C35.6937 5.28632 35.4744 5.78221 35.4744 6.39889C35.4744 7.02193 35.6365 7.521 35.9608 7.8961C36.2913 8.2712 36.8286 8.45874 37.5724 8.45874ZM37.5724 9.83198H38.6214C39.5496 9.83198 40.2458 10.0895 40.7099 10.6044C41.174 11.1194 41.406 11.7774 41.406 12.5784C41.406 13.3922 41.1167 14.0534 40.5382 14.562C39.966 15.0706 39.1046 15.3249 37.9538 15.3249C37.1464 15.3249 36.3931 15.2327 35.6937 15.0484C35.0008 14.8576 34.4286 14.5874 33.9772 14.2378L34.5208 13.8182C35.3155 14.3649 36.4598 14.6383 37.9538 14.6383C38.9138 14.6383 39.6132 14.4507 40.0518 14.0757C40.4969 13.6942 40.7194 13.1951 40.7194 12.5784C40.7194 11.9618 40.5541 11.4659 40.2235 11.0908C39.8929 10.7093 39.3557 10.5186 38.6119 10.5186H37.5724C36.2691 10.5186 35.2487 10.1308 34.5112 9.35516C33.7801 8.57318 33.4145 7.58776 33.4145 6.39889C33.4145 5.21003 33.8373 4.22778 34.6829 3.45216C35.5284 2.67018 36.7141 2.27919 38.2399 2.27919C39.2571 2.27919 40.2044 2.41906 41.0818 2.69879C41.9655 2.97852 42.6998 3.37269 43.2847 3.8813L42.7506 4.31043C42.2293 3.88448 41.5745 3.55388 40.7861 3.31865C39.9978 3.08342 39.1491 2.96581 38.2399 2.96581C36.8985 2.96581 35.8717 3.28686 35.1597 3.92898C34.454 4.57109 34.1012 5.3944 34.1012 6.39889C34.1012 7.39703 34.4 8.22033 34.9976 8.86881C35.5952 9.51092 36.4535 9.83198 37.5724 9.83198ZM37.5724 11.2052H38.6214C39.1109 11.2052 39.4638 11.3324 39.6799 11.5867C39.8961 11.841 40.0042 12.1716 40.0042 12.5784C40.0042 13.4939 39.3207 13.9517 37.9538 13.9517C36.6633 13.9517 35.6937 13.761 35.0453 13.3795L35.5984 12.9599C36.0434 13.1633 36.8286 13.2651 37.9538 13.2651C38.5006 13.2651 38.8662 13.2047 39.0505 13.0839C39.2413 12.9631 39.3366 12.7946 39.3366 12.5784C39.3366 12.3686 39.2826 12.2033 39.1745 12.0826C39.0728 11.9554 38.8821 11.8918 38.6023 11.8918H37.5724C36.695 11.8918 35.9004 11.7488 35.1883 11.4627C34.4826 11.1766 33.9009 10.7824 33.4432 10.2802C32.9918 9.77794 32.6453 9.19622 32.4037 8.53503C32.1621 7.87385 32.0413 7.1618 32.0413 6.39889C32.0413 5.78857 32.1271 5.21003 32.2988 4.66328C32.4704 4.11653 32.7279 3.61428 33.0712 3.15653C33.4209 2.69879 33.8373 2.30462 34.3205 1.97403C34.81 1.63708 35.3886 1.37642 36.0561 1.19205C36.73 1.00132 37.458 0.905956 38.2399 0.905956C39.4669 0.905956 40.6145 1.0935 41.6826 1.4686C42.7506 1.83734 43.6407 2.35548 44.3527 3.02303L43.7996 3.43309C43.1512 2.84819 42.3406 2.3968 41.3679 2.07893C40.3952 1.75469 39.3525 1.59257 38.2399 1.59257C37.369 1.59257 36.5806 1.71972 35.8749 1.97403C35.1756 2.22197 34.5971 2.56528 34.1393 3.00395C33.6879 3.44262 33.3383 3.95123 33.0903 4.52977C32.8487 5.10831 32.7279 5.73135 32.7279 6.39889C32.7279 7.29531 32.9091 8.10272 33.2715 8.82112C33.6339 9.53953 34.187 10.1181 34.9308 10.5567C35.6747 10.9891 36.5552 11.2052 37.5724 11.2052Z" fill="#FF6464"/>
</svg>
